SplineFontDB: 3.2
FontName: Garmin5x7
FullName: Garmin 5x7 Regular
FamilyName: Garmin
Weight: Book
Copyright: Copyright MagneticEagle 2024
Version: 1
ItalicAngle: 0
UnderlinePosition: 153
UnderlineWidth: 102
Ascent: 2048
Descent: 0
InvalidEm: 0
sfntRevision: 0x00010000
LayerCount: 2
Layer: 0 1 "Back" 1
Layer: 1 1 "Fore" 0
XUID: [1021 196 -461918100 1675860]
StyleMap: 0x0040
FSType: 4
OS2Version: 2
OS2_WeightWidthSlopeOnly: 0
OS2_UseTypoMetrics: 0
CreationTime: 1710315756
ModificationTime: 1710511143
PfmFamily: 81
TTFWeight: 400
TTFWidth: 5
LineGap: 0
VLineGap: 0
Panose: 0 0 4 0 0 0 0 0 0 0
OS2TypoAscent: 2048
OS2TypoAOffset: 0
OS2TypoDescent: 0
OS2TypoDOffset: 0
OS2TypoLinegap: 0
OS2WinAscent: 2048
OS2WinAOffset: 0
OS2WinDescent: 0
OS2WinDOffset: 0
HheadAscent: 2048
HheadAOffset: 0
HheadDescent: 0
HheadDOffset: 0
OS2SubXSize: 1024
OS2SubYSize: 1024
OS2SubXOff: 0
OS2SubYOff: 0
OS2SupXSize: 1024
OS2SupYSize: 1024
OS2SupXOff: 0
OS2SupYOff: 1024
OS2StrikeYSize: 102
OS2StrikeYPos: 409
OS2CapHeight: 2047
OS2Vendor: 'FSTR'
OS2CodePages: 200101ff.cdff0000
OS2UnicodeRanges: 00000001.00000000.00000000.00000000
MarkAttachClasses: 1
DEI: 91125
ShortTable: maxp 16
  1
  0
  74
  44
  10
  0
  0
  2
  0
  0
  0
  0
  0
  0
  0
  0
EndShort

StartChar: exclam
Encoding: 33 33 1
Width: 1600
Flags: W
LayerCount: 2
Fore
SplineSet
654 0 m 1,0,-1
 654 292 l 1,1,-1
 946 292 l 1,2,-1
 946 0 l 1,3,-1
 654 0 l 1,0,-1
654 585 m 1,4,-1
 654 2048 l 1,5,-1
 946 2048 l 1,6,-1
 946 585 l 1,7,-1
 654 585 l 1,4,-1
EndSplineSet
EndChar

StartChar: quotedbl
Encoding: 34 34 2
Width: 1600
Flags: W
LayerCount: 2
Fore
SplineSet
361 1462 m 1,0,-1
 361 2048 l 1,1,-1
 654 2048 l 1,2,-1
 654 1462 l 1,3,-1
 361 1462 l 1,0,-1
946 1462 m 1,4,-1
 946 2048 l 1,5,-1
 1239 2048 l 1,6,-1
 1239 1462 l 1,7,-1
 946 1462 l 1,4,-1
EndSplineSet
EndChar

StartChar: numbersign
Encoding: 35 35 3
Width: 1600
Flags: W
LayerCount: 2
Fore
SplineSet
946 585 m 1,0,-1
 946 1170 l 1,1,-1
 654 1170 l 1,2,-1
 654 585 l 1,3,-1
 946 585 l 1,0,-1
361 0 m 1,4,-1
 361 292 l 1,5,-1
 69 292 l 1,6,-1
 69 585 l 1,7,-1
 361 585 l 1,8,-1
 361 1170 l 1,9,-1
 69 1170 l 1,10,-1
 69 1462 l 1,11,-1
 361 1462 l 1,12,-1
 361 1755 l 1,13,-1
 654 1755 l 1,14,-1
 654 1462 l 1,15,-1
 946 1462 l 1,16,-1
 946 1755 l 1,17,-1
 1239 1755 l 1,18,-1
 1239 1462 l 1,19,-1
 1531 1462 l 1,20,-1
 1531 1170 l 1,21,-1
 1239 1170 l 1,22,-1
 1239 585 l 1,23,-1
 1531 585 l 1,24,-1
 1531 292 l 1,25,-1
 1239 292 l 1,26,-1
 1239 0 l 1,27,-1
 946 0 l 1,28,-1
 946 292 l 1,29,-1
 654 292 l 1,30,-1
 654 0 l 1,31,-1
 361 0 l 1,4,-1
EndSplineSet
EndChar

StartChar: dollar
Encoding: 36 36 4
Width: 1600
Flags: W
LayerCount: 2
Fore
SplineSet
69 292 m 1,0,-1
 69 585 l 1,1,-1
 361 585 l 1,2,-1
 361 292 l 1,3,-1
 69 292 l 1,0,-1
1239 292 m 1,4,-1
 1239 585 l 1,5,-1
 1531 585 l 1,6,-1
 1531 292 l 1,7,-1
 1239 292 l 1,4,-1
69 1462 m 1,8,-1
 69 1755 l 1,9,-1
 361 1755 l 1,10,-1
 361 1462 l 1,11,-1
 69 1462 l 1,8,-1
1239 1462 m 1,12,-1
 1239 1755 l 1,13,-1
 1531 1755 l 1,14,-1
 1531 1462 l 1,15,-1
 1239 1462 l 1,12,-1
361 0 m 1,16,-1
 361 292 l 1,17,-1
 654 292 l 1,18,-1
 654 1170 l 1,19,-1
 361 1170 l 1,20,-1
 361 1462 l 1,21,-1
 654 1462 l 1,22,-1
 654 1755 l 1,23,-1
 361 1755 l 1,24,-1
 361 2048 l 1,25,-1
 1239 2048 l 1,26,-1
 1239 1755 l 1,27,-1
 946 1755 l 1,28,-1
 946 877 l 1,29,-1
 1239 877 l 1,30,-1
 1239 585 l 1,31,-1
 946 585 l 1,32,-1
 946 292 l 1,33,-1
 1239 292 l 1,34,-1
 1239 0 l 1,35,-1
 361 0 l 1,16,-1
EndSplineSet
EndChar

StartChar: percent
Encoding: 37 37 5
Width: 1600
Flags: W
LayerCount: 2
Fore
SplineSet
69 0 m 1,0,-1
 69 292 l 1,1,-1
 361 292 l 1,2,-1
 361 0 l 1,3,-1
 69 0 l 1,0,-1
946 0 m 1,4,-1
 946 292 l 1,5,-1
 1239 292 l 1,6,-1
 1239 0 l 1,7,-1
 946 0 l 1,4,-1
361 292 m 1,8,-1
 361 585 l 1,9,-1
 654 585 l 1,10,-1
 654 877 l 1,11,-1
 946 877 l 1,12,-1
 946 292 l 1,13,-1
 361 292 l 1,8,-1
1239 292 m 1,14,-1
 1239 877 l 1,15,-1
 1531 877 l 1,16,-1
 1531 292 l 1,17,-1
 1239 292 l 1,14,-1
361 877 m 1,18,-1
 361 1170 l 1,19,-1
 654 1170 l 1,20,-1
 654 877 l 1,21,-1
 361 877 l 1,18,-1
946 877 m 1,22,-1
 946 1170 l 1,23,-1
 1239 1170 l 1,24,-1
 1239 877 l 1,25,-1
 946 877 l 1,22,-1
69 1170 m 1,26,-1
 69 1755 l 1,27,-1
 361 1755 l 1,28,-1
 361 1170 l 1,29,-1
 69 1170 l 1,26,-1
654 1170 m 1,30,-1
 654 1755 l 1,31,-1
 1239 1755 l 1,32,-1
 1239 1462 l 1,33,-1
 946 1462 l 1,34,-1
 946 1170 l 1,35,-1
 654 1170 l 1,30,-1
361 1755 m 1,36,-1
 361 2048 l 1,37,-1
 654 2048 l 1,38,-1
 654 1755 l 1,39,-1
 361 1755 l 1,36,-1
1239 1755 m 1,40,-1
 1239 2048 l 1,41,-1
 1531 2048 l 1,42,-1
 1531 1755 l 1,43,-1
 1239 1755 l 1,40,-1
EndSplineSet
EndChar

StartChar: ampersand
Encoding: 38 38 6
Width: 1600
Flags: W
LayerCount: 2
Fore
SplineSet
361 0 m 1,0,-1
 361 292 l 1,1,-1
 946 292 l 1,2,-1
 946 0 l 1,3,-1
 361 0 l 1,0,-1
1239 0 m 1,4,-1
 1239 292 l 1,5,-1
 1531 292 l 1,6,-1
 1531 0 l 1,7,-1
 1239 0 l 1,4,-1
69 292 m 1,8,-1
 69 585 l 1,9,-1
 361 585 l 1,10,-1
 361 292 l 1,11,-1
 69 292 l 1,8,-1
946 292 m 1,12,-1
 946 585 l 1,13,-1
 1239 585 l 1,14,-1
 1239 292 l 1,15,-1
 946 292 l 1,12,-1
1239 585 m 1,16,-1
 1239 877 l 1,17,-1
 1531 877 l 1,18,-1
 1531 585 l 1,19,-1
 1239 585 l 1,16,-1
361 585 m 1,20,-1
 361 1170 l 1,21,-1
 946 1170 l 1,22,-1
 946 585 l 1,23,-1
 361 585 l 1,20,-1
946 1170 m 1,24,-1
 946 1462 l 1,25,-1
 1239 1462 l 1,26,-1
 1239 1170 l 1,27,-1
 946 1170 l 1,24,-1
69 1170 m 1,28,-1
 69 1755 l 1,29,-1
 361 1755 l 1,30,-1
 361 1170 l 1,31,-1
 69 1170 l 1,28,-1
1239 1462 m 1,32,-1
 1239 1755 l 1,33,-1
 1531 1755 l 1,34,-1
 1531 1462 l 1,35,-1
 1239 1462 l 1,32,-1
361 1755 m 1,36,-1
 361 2048 l 1,37,-1
 1239 2048 l 1,38,-1
 1239 1755 l 1,39,-1
 361 1755 l 1,36,-1
EndSplineSet
EndChar

StartChar: quotesingle
Encoding: 39 39 7
Width: 1600
Flags: W
LayerCount: 2
Fore
SplineSet
654 1462 m 1,0,-1
 654 2048 l 1,1,-1
 946 2048 l 1,2,-1
 946 1462 l 1,3,-1
 654 1462 l 1,0,-1
EndSplineSet
EndChar

StartChar: parenleft
Encoding: 40 40 8
Width: 1600
Flags: W
LayerCount: 2
Fore
SplineSet
800.5 0 m 1,0,-1
 800.5 292 l 1,1,-1
 1092.5 292 l 1,2,-1
 1092.5 0 l 1,3,-1
 800.5 0 l 1,0,-1
507.5 292 m 1,4,-1
 507.5 1755 l 1,5,-1
 800.5 1755 l 1,6,-1
 800.5 292 l 1,7,-1
 507.5 292 l 1,4,-1
800.5 1755 m 1,8,-1
 800.5 2048 l 1,9,-1
 1092.5 2048 l 1,10,-1
 1092.5 1755 l 1,11,-1
 800.5 1755 l 1,8,-1
EndSplineSet
EndChar

StartChar: parenright
Encoding: 41 41 9
Width: 1600
Flags: W
LayerCount: 2
Fore
SplineSet
507.5 0 m 1,0,-1
 507.5 292 l 1,1,-1
 799.5 292 l 1,2,-1
 799.5 0 l 1,3,-1
 507.5 0 l 1,0,-1
799.5 292 m 1,4,-1
 799.5 1755 l 1,5,-1
 1092.5 1755 l 1,6,-1
 1092.5 292 l 1,7,-1
 799.5 292 l 1,4,-1
507.5 1755 m 1,8,-1
 507.5 2048 l 1,9,-1
 799.5 2048 l 1,10,-1
 799.5 1755 l 1,11,-1
 507.5 1755 l 1,8,-1
EndSplineSet
EndChar

StartChar: asterisk
Encoding: 42 42 10
Width: 1600
Flags: W
LayerCount: 2
Fore
SplineSet
654 1170 m 1,0,-1
 654 1462 l 1,1,-1
 361 1462 l 1,2,-1
 361 1755 l 1,3,-1
 654 1755 l 1,4,-1
 654 2048 l 1,5,-1
 946 2048 l 1,6,-1
 946 1755 l 1,7,-1
 1239 1755 l 1,8,-1
 1239 1462 l 1,9,-1
 946 1462 l 1,10,-1
 946 1170 l 1,11,-1
 654 1170 l 1,0,-1
EndSplineSet
EndChar

StartChar: plus
Encoding: 43 43 11
Width: 1600
Flags: W
LayerCount: 2
Fore
SplineSet
654 292 m 1,0,-1
 654 877 l 1,1,-1
 69 877 l 1,2,-1
 69 1170 l 1,3,-1
 654 1170 l 1,4,-1
 654 1755 l 1,5,-1
 946 1755 l 1,6,-1
 946 1170 l 1,7,-1
 1531 1170 l 1,8,-1
 1531 877 l 1,9,-1
 946 877 l 1,10,-1
 946 292 l 1,11,-1
 654 292 l 1,0,-1
EndSplineSet
EndChar

StartChar: comma
Encoding: 44 44 12
Width: 1600
Flags: W
LayerCount: 2
Fore
SplineSet
507.5 0 m 1,0,-1
 507.5 292 l 1,1,-1
 799.5 292 l 1,2,-1
 799.5 0 l 1,3,-1
 507.5 0 l 1,0,-1
799.5 292 m 1,4,-1
 799.5 877 l 1,5,-1
 1092.5 877 l 1,6,-1
 1092.5 292 l 1,7,-1
 799.5 292 l 1,4,-1
EndSplineSet
EndChar

StartChar: hyphen
Encoding: 45 45 13
Width: 1600
Flags: W
LayerCount: 2
Fore
SplineSet
69 877 m 1,0,-1
 69 1170 l 1,1,-1
 1531 1170 l 1,2,-1
 1531 877 l 1,3,-1
 69 877 l 1,0,-1
EndSplineSet
EndChar

StartChar: period
Encoding: 46 46 14
Width: 1600
Flags: W
LayerCount: 2
Fore
SplineSet
654 0 m 1,0,-1
 654 292 l 1,1,-1
 946 292 l 1,2,-1
 946 0 l 1,3,-1
 654 0 l 1,0,-1
EndSplineSet
EndChar

StartChar: slash
Encoding: 47 47 15
Width: 1600
Flags: W
LayerCount: 2
Fore
SplineSet
361 0 m 1,0,-1
 361 585 l 1,1,-1
 654 585 l 1,2,-1
 654 0 l 1,3,-1
 361 0 l 1,0,-1
654 585 m 1,4,-1
 654 1462 l 1,5,-1
 946 1462 l 1,6,-1
 946 585 l 1,7,-1
 654 585 l 1,4,-1
946 1462 m 1,8,-1
 946 2048 l 1,9,-1
 1239 2048 l 1,10,-1
 1239 1462 l 1,11,-1
 946 1462 l 1,8,-1
EndSplineSet
EndChar

StartChar: zero
Encoding: 48 48 16
Width: 1600
Flags: W
LayerCount: 2
Fore
SplineSet
361 0 m 1,0,-1
 361 292 l 1,1,-1
 1239 292 l 1,2,-1
 1239 0 l 1,3,-1
 361 0 l 1,0,-1
69 292 m 1,4,-1
 69 1755 l 1,5,-1
 361 1755 l 1,6,-1
 361 292 l 1,7,-1
 69 292 l 1,4,-1
1239 292 m 1,8,-1
 1239 1755 l 1,9,-1
 1531 1755 l 1,10,-1
 1531 292 l 1,11,-1
 1239 292 l 1,8,-1
361 1755 m 1,12,-1
 361 2048 l 1,13,-1
 1239 2048 l 1,14,-1
 1239 1755 l 1,15,-1
 361 1755 l 1,12,-1
EndSplineSet
EndChar

StartChar: one
Encoding: 49 49 17
Width: 1600
Flags: W
LayerCount: 2
Fore
SplineSet
361.5 0 m 1,0,-1
 361.5 292 l 1,1,-1
 653.5 292 l 1,2,-1
 653.5 1462 l 1,3,-1
 361.5 1462 l 1,4,-1
 361.5 1755 l 1,5,-1
 653.5 1755 l 1,6,-1
 653.5 2048 l 1,7,-1
 946.5 2048 l 1,8,-1
 946.5 292 l 1,9,-1
 1238.5 292 l 1,10,-1
 1238.5 0 l 1,11,-1
 361.5 0 l 1,0,-1
EndSplineSet
EndChar

StartChar: two
Encoding: 50 50 18
Width: 1600
Flags: W
LayerCount: 2
Fore
SplineSet
69 0 m 1,0,-1
 69 585 l 1,1,-1
 361 585 l 1,2,-1
 361 292 l 1,3,-1
 1531 292 l 1,4,-1
 1531 0 l 1,5,-1
 69 0 l 1,0,-1
361 585 m 1,6,-1
 361 877 l 1,7,-1
 654 877 l 1,8,-1
 654 585 l 1,9,-1
 361 585 l 1,6,-1
654 877 m 1,10,-1
 654 1170 l 1,11,-1
 946 1170 l 1,12,-1
 946 877 l 1,13,-1
 654 877 l 1,10,-1
946 1170 m 1,14,-1
 946 1462 l 1,15,-1
 1239 1462 l 1,16,-1
 1239 1170 l 1,17,-1
 946 1170 l 1,14,-1
69 1462 m 1,18,-1
 69 1755 l 1,19,-1
 361 1755 l 1,20,-1
 361 1462 l 1,21,-1
 69 1462 l 1,18,-1
1239 1462 m 1,22,-1
 1239 1755 l 1,23,-1
 1531 1755 l 1,24,-1
 1531 1462 l 1,25,-1
 1239 1462 l 1,22,-1
361 1755 m 1,26,-1
 361 2048 l 1,27,-1
 1239 2048 l 1,28,-1
 1239 1755 l 1,29,-1
 361 1755 l 1,26,-1
EndSplineSet
EndChar

StartChar: three
Encoding: 51 51 19
Width: 1600
Flags: W
LayerCount: 2
Fore
SplineSet
361 0 m 1,0,-1
 361 292 l 1,1,-1
 1239 292 l 1,2,-1
 1239 0 l 1,3,-1
 361 0 l 1,0,-1
69 292 m 1,4,-1
 69 585 l 1,5,-1
 361 585 l 1,6,-1
 361 292 l 1,7,-1
 69 292 l 1,4,-1
1239 292 m 1,8,-1
 1239 877 l 1,9,-1
 1531 877 l 1,10,-1
 1531 292 l 1,11,-1
 1239 292 l 1,8,-1
361 877 m 1,12,-1
 361 1170 l 1,13,-1
 1239 1170 l 1,14,-1
 1239 877 l 1,15,-1
 361 877 l 1,12,-1
69 1462 m 1,16,-1
 69 1755 l 1,17,-1
 361 1755 l 1,18,-1
 361 1462 l 1,19,-1
 69 1462 l 1,16,-1
1239 1170 m 1,20,-1
 1239 1755 l 1,21,-1
 1531 1755 l 1,22,-1
 1531 1170 l 1,23,-1
 1239 1170 l 1,20,-1
361 1755 m 1,24,-1
 361 2048 l 1,25,-1
 1239 2048 l 1,26,-1
 1239 1755 l 1,27,-1
 361 1755 l 1,24,-1
EndSplineSet
EndChar

StartChar: four
Encoding: 52 52 20
Width: 1600
Flags: W
LayerCount: 2
Fore
SplineSet
361 1170 m 1,0,-1
 361 1462 l 1,1,-1
 654 1462 l 1,2,-1
 654 1170 l 1,3,-1
 361 1170 l 1,0,-1
946 0 m 1,4,-1
 946 585 l 1,5,-1
 69 585 l 1,6,-1
 69 1170 l 1,7,-1
 361 1170 l 1,8,-1
 361 877 l 1,9,-1
 946 877 l 1,10,-1
 946 1462 l 1,11,-1
 654 1462 l 1,12,-1
 654 1755 l 1,13,-1
 946 1755 l 1,14,-1
 946 2048 l 1,15,-1
 1239 2048 l 1,16,-1
 1239 877 l 1,17,-1
 1531 877 l 1,18,-1
 1531 585 l 1,19,-1
 1239 585 l 1,20,-1
 1239 0 l 1,21,-1
 946 0 l 1,4,-1
EndSplineSet
EndChar

StartChar: five
Encoding: 53 53 21
Width: 1600
Flags: W
LayerCount: 2
Fore
SplineSet
361 0 m 1,0,-1
 361 292 l 1,1,-1
 1239 292 l 1,2,-1
 1239 0 l 1,3,-1
 361 0 l 1,0,-1
69 292 m 1,4,-1
 69 585 l 1,5,-1
 361 585 l 1,6,-1
 361 292 l 1,7,-1
 69 292 l 1,4,-1
1239 292 m 1,8,-1
 1239 877 l 1,9,-1
 1531 877 l 1,10,-1
 1531 292 l 1,11,-1
 1239 292 l 1,8,-1
69 877 m 1,12,-1
 69 2048 l 1,13,-1
 1531 2048 l 1,14,-1
 1531 1755 l 1,15,-1
 361 1755 l 1,16,-1
 361 1170 l 1,17,-1
 1239 1170 l 1,18,-1
 1239 877 l 1,19,-1
 69 877 l 1,12,-1
EndSplineSet
EndChar

StartChar: six
Encoding: 54 54 22
Width: 1600
Flags: W
LayerCount: 2
Fore
SplineSet
361 0 m 1,0,-1
 361 292 l 1,1,-1
 1239 292 l 1,2,-1
 1239 0 l 1,3,-1
 361 0 l 1,0,-1
1239 292 m 1,4,-1
 1239 877 l 1,5,-1
 1531 877 l 1,6,-1
 1531 292 l 1,7,-1
 1239 292 l 1,4,-1
69 292 m 1,8,-1
 69 1755 l 1,9,-1
 361 1755 l 1,10,-1
 361 1170 l 1,11,-1
 1239 1170 l 1,12,-1
 1239 877 l 1,13,-1
 361 877 l 1,14,-1
 361 292 l 1,15,-1
 69 292 l 1,8,-1
361 1755 m 1,16,-1
 361 2048 l 1,17,-1
 1239 2048 l 1,18,-1
 1239 1755 l 1,19,-1
 361 1755 l 1,16,-1
EndSplineSet
EndChar

StartChar: seven
Encoding: 55 55 23
Width: 1600
Flags: W
LayerCount: 2
Fore
SplineSet
361 0 m 1,0,-1
 361 877 l 1,1,-1
 654 877 l 1,2,-1
 654 0 l 1,3,-1
 361 0 l 1,0,-1
654 877 m 1,4,-1
 654 1170 l 1,5,-1
 946 1170 l 1,6,-1
 946 877 l 1,7,-1
 654 877 l 1,4,-1
946 1170 m 1,8,-1
 946 1462 l 1,9,-1
 1239 1462 l 1,10,-1
 1239 1170 l 1,11,-1
 946 1170 l 1,8,-1
1239 1462 m 1,12,-1
 1239 1755 l 1,13,-1
 69 1755 l 1,14,-1
 69 2048 l 1,15,-1
 1531 2048 l 1,16,-1
 1531 1462 l 1,17,-1
 1239 1462 l 1,12,-1
EndSplineSet
EndChar

StartChar: eight
Encoding: 56 56 24
Width: 1600
Flags: W
LayerCount: 2
Fore
SplineSet
361 0 m 1,0,-1
 361 292 l 1,1,-1
 1239 292 l 1,2,-1
 1239 0 l 1,3,-1
 361 0 l 1,0,-1
69 292 m 1,4,-1
 69 877 l 1,5,-1
 361 877 l 1,6,-1
 361 292 l 1,7,-1
 69 292 l 1,4,-1
1239 292 m 1,8,-1
 1239 877 l 1,9,-1
 1531 877 l 1,10,-1
 1531 292 l 1,11,-1
 1239 292 l 1,8,-1
361 877 m 1,12,-1
 361 1170 l 1,13,-1
 1239 1170 l 1,14,-1
 1239 877 l 1,15,-1
 361 877 l 1,12,-1
69 1170 m 1,16,-1
 69 1755 l 1,17,-1
 361 1755 l 1,18,-1
 361 1170 l 1,19,-1
 69 1170 l 1,16,-1
1239 1170 m 1,20,-1
 1239 1755 l 1,21,-1
 1531 1755 l 1,22,-1
 1531 1170 l 1,23,-1
 1239 1170 l 1,20,-1
361 1755 m 1,24,-1
 361 2048 l 1,25,-1
 1239 2048 l 1,26,-1
 1239 1755 l 1,27,-1
 361 1755 l 1,24,-1
EndSplineSet
EndChar

StartChar: nine
Encoding: 57 57 25
Width: 1600
Flags: W
LayerCount: 2
Fore
SplineSet
361 0 m 1,0,-1
 361 292 l 1,1,-1
 1239 292 l 1,2,-1
 1239 0 l 1,3,-1
 361 0 l 1,0,-1
69 1170 m 1,4,-1
 69 1755 l 1,5,-1
 361 1755 l 1,6,-1
 361 1170 l 1,7,-1
 69 1170 l 1,4,-1
1239 292 m 1,8,-1
 1239 877 l 1,9,-1
 361 877 l 1,10,-1
 361 1170 l 1,11,-1
 1239 1170 l 1,12,-1
 1239 1755 l 1,13,-1
 1531 1755 l 1,14,-1
 1531 292 l 1,15,-1
 1239 292 l 1,8,-1
361 1755 m 1,16,-1
 361 2048 l 1,17,-1
 1239 2048 l 1,18,-1
 1239 1755 l 1,19,-1
 361 1755 l 1,16,-1
EndSplineSet
EndChar

StartChar: colon
Encoding: 58 58 26
Width: 1600
Flags: W
LayerCount: 2
Fore
SplineSet
654 0 m 1,0,-1
 654 292 l 1,1,-1
 946 292 l 1,2,-1
 946 0 l 1,3,-1
 654 0 l 1,0,-1
654 1170 m 1,4,-1
 654 1462 l 1,5,-1
 946 1462 l 1,6,-1
 946 1170 l 1,7,-1
 654 1170 l 1,4,-1
EndSplineSet
EndChar

StartChar: semicolon
Encoding: 59 59 27
Width: 1600
Flags: W
LayerCount: 2
Fore
SplineSet
507.5 0 m 1,0,-1
 507.5 292 l 1,1,-1
 800.5 292 l 1,2,-1
 800.5 0 l 1,3,-1
 507.5 0 l 1,0,-1
800.5 292 m 1,4,-1
 800.5 877 l 1,5,-1
 1092.5 877 l 1,6,-1
 1092.5 292 l 1,7,-1
 800.5 292 l 1,4,-1
800.5 1170 m 1,8,-1
 800.5 1462 l 1,9,-1
 1092.5 1462 l 1,10,-1
 1092.5 1170 l 1,11,-1
 800.5 1170 l 1,8,-1
EndSplineSet
EndChar

StartChar: less
Encoding: 60 60 28
Width: 1600
Flags: W
LayerCount: 2
Fore
SplineSet
946 0 m 1,0,-1
 946 292 l 1,1,-1
 1531 292 l 1,2,-1
 1531 0 l 1,3,-1
 946 0 l 1,0,-1
361 292 m 1,4,-1
 361 585 l 1,5,-1
 946 585 l 1,6,-1
 946 292 l 1,7,-1
 361 292 l 1,4,-1
69 585 m 1,8,-1
 69 877 l 1,9,-1
 361 877 l 1,10,-1
 361 585 l 1,11,-1
 69 585 l 1,8,-1
361 877 m 1,12,-1
 361 1170 l 1,13,-1
 946 1170 l 1,14,-1
 946 877 l 1,15,-1
 361 877 l 1,12,-1
946 1170 m 1,16,-1
 946 1462 l 1,17,-1
 1531 1462 l 1,18,-1
 1531 1170 l 1,19,-1
 946 1170 l 1,16,-1
EndSplineSet
EndChar

StartChar: equal
Encoding: 61 61 29
Width: 1600
Flags: W
LayerCount: 2
Fore
SplineSet
69 585 m 1,0,-1
 69 877 l 1,1,-1
 1531 877 l 1,2,-1
 1531 585 l 1,3,-1
 69 585 l 1,0,-1
69 1170 m 1,4,-1
 69 1462 l 1,5,-1
 1531 1462 l 1,6,-1
 1531 1170 l 1,7,-1
 69 1170 l 1,4,-1
EndSplineSet
EndChar

StartChar: greater
Encoding: 62 62 30
Width: 1600
Flags: W
LayerCount: 2
Fore
SplineSet
69 0 m 1,0,-1
 69 292 l 1,1,-1
 654 292 l 1,2,-1
 654 0 l 1,3,-1
 69 0 l 1,0,-1
654 292 m 1,4,-1
 654 585 l 1,5,-1
 1239 585 l 1,6,-1
 1239 292 l 1,7,-1
 654 292 l 1,4,-1
1239 585 m 1,8,-1
 1239 877 l 1,9,-1
 1531 877 l 1,10,-1
 1531 585 l 1,11,-1
 1239 585 l 1,8,-1
654 877 m 1,12,-1
 654 1170 l 1,13,-1
 1239 1170 l 1,14,-1
 1239 877 l 1,15,-1
 654 877 l 1,12,-1
69 1170 m 1,16,-1
 69 1462 l 1,17,-1
 654 1462 l 1,18,-1
 654 1170 l 1,19,-1
 69 1170 l 1,16,-1
EndSplineSet
EndChar

StartChar: question
Encoding: 63 63 31
Width: 1600
Flags: W
LayerCount: 2
Fore
SplineSet
654 0 m 1,0,-1
 654 292 l 1,1,-1
 946 292 l 1,2,-1
 946 0 l 1,3,-1
 654 0 l 1,0,-1
654 585 m 1,4,-1
 654 877 l 1,5,-1
 946 877 l 1,6,-1
 946 585 l 1,7,-1
 654 585 l 1,4,-1
946 877 m 1,8,-1
 946 1170 l 1,9,-1
 1239 1170 l 1,10,-1
 1239 877 l 1,11,-1
 946 877 l 1,8,-1
69 1462 m 1,12,-1
 69 1755 l 1,13,-1
 361 1755 l 1,14,-1
 361 1462 l 1,15,-1
 69 1462 l 1,12,-1
1239 1170 m 1,16,-1
 1239 1755 l 1,17,-1
 1531 1755 l 1,18,-1
 1531 1170 l 1,19,-1
 1239 1170 l 1,16,-1
361 1755 m 1,20,-1
 361 2048 l 1,21,-1
 1239 2048 l 1,22,-1
 1239 1755 l 1,23,-1
 361 1755 l 1,20,-1
EndSplineSet
EndChar

StartChar: at
Encoding: 64 64 32
Width: 1600
Flags: W
LayerCount: 2
Fore
SplineSet
361 0 m 1,0,-1
 361 292 l 1,1,-1
 1239 292 l 1,2,-1
 1239 0 l 1,3,-1
 361 0 l 1,0,-1
69 292 m 1,4,-1
 69 1755 l 1,5,-1
 361 1755 l 1,6,-1
 361 292 l 1,7,-1
 69 292 l 1,4,-1
654 585 m 1,8,-1
 654 1462 l 1,9,-1
 1239 1462 l 1,10,-1
 1239 1755 l 1,11,-1
 1531 1755 l 1,12,-1
 1531 585 l 1,13,-1
 654 585 l 1,8,-1
361 1755 m 1,14,-1
 361 2048 l 1,15,-1
 1239 2048 l 1,16,-1
 1239 1755 l 1,17,-1
 361 1755 l 1,14,-1
EndSplineSet
EndChar

StartChar: A
Encoding: 65 65 33
Width: 1600
Flags: W
LayerCount: 2
Fore
SplineSet
69 0 m 1,0,-1
 69 1755 l 1,1,-1
 361 1755 l 1,2,-1
 361 1170 l 1,3,-1
 1239 1170 l 1,4,-1
 1239 1755 l 1,5,-1
 1531 1755 l 1,6,-1
 1531 0 l 1,7,-1
 1239 0 l 1,8,-1
 1239 877 l 1,9,-1
 361 877 l 1,10,-1
 361 0 l 1,11,-1
 69 0 l 1,0,-1
361 1755 m 1,12,-1
 361 2048 l 1,13,-1
 1239 2048 l 1,14,-1
 1239 1755 l 1,15,-1
 361 1755 l 1,12,-1
EndSplineSet
EndChar

StartChar: B
Encoding: 66 66 34
Width: 1600
Flags: W
LayerCount: 2
Fore
SplineSet
1239 292 m 1,0,-1
 1239 877 l 1,1,-1
 1531 877 l 1,2,-1
 1531 292 l 1,3,-1
 1239 292 l 1,0,-1
1239 1170 m 1,4,-1
 1239 1755 l 1,5,-1
 1531 1755 l 1,6,-1
 1531 1170 l 1,7,-1
 1239 1170 l 1,4,-1
69 0 m 1,8,-1
 69 2048 l 1,9,-1
 1239 2048 l 1,10,-1
 1239 1755 l 1,11,-1
 361 1755 l 1,12,-1
 361 1170 l 1,13,-1
 1239 1170 l 1,14,-1
 1239 877 l 1,15,-1
 361 877 l 1,16,-1
 361 292 l 1,17,-1
 1239 292 l 1,18,-1
 1239 0 l 1,19,-1
 69 0 l 1,8,-1
EndSplineSet
EndChar

StartChar: C
Encoding: 67 67 35
Width: 1600
Flags: W
LayerCount: 2
Fore
SplineSet
361 0 m 1,0,-1
 361 292 l 1,1,-1
 1239 292 l 1,2,-1
 1239 0 l 1,3,-1
 361 0 l 1,0,-1
1239 292 m 1,4,-1
 1239 585 l 1,5,-1
 1531 585 l 1,6,-1
 1531 292 l 1,7,-1
 1239 292 l 1,4,-1
69 292 m 1,8,-1
 69 1755 l 1,9,-1
 361 1755 l 1,10,-1
 361 292 l 1,11,-1
 69 292 l 1,8,-1
1239 1462 m 1,12,-1
 1239 1755 l 1,13,-1
 1531 1755 l 1,14,-1
 1531 1462 l 1,15,-1
 1239 1462 l 1,12,-1
361 1755 m 1,16,-1
 361 2048 l 1,17,-1
 1239 2048 l 1,18,-1
 1239 1755 l 1,19,-1
 361 1755 l 1,16,-1
EndSplineSet
EndChar

StartChar: D
Encoding: 68 68 36
Width: 1600
Flags: W
LayerCount: 2
Fore
SplineSet
1239 292 m 1,0,-1
 1239 1755 l 1,1,-1
 1531 1755 l 1,2,-1
 1531 292 l 1,3,-1
 1239 292 l 1,0,-1
69 0 m 1,4,-1
 69 2048 l 1,5,-1
 1239 2048 l 1,6,-1
 1239 1755 l 1,7,-1
 361 1755 l 1,8,-1
 361 292 l 1,9,-1
 1239 292 l 1,10,-1
 1239 0 l 1,11,-1
 69 0 l 1,4,-1
EndSplineSet
EndChar

StartChar: E
Encoding: 69 69 37
Width: 1600
Flags: W
LayerCount: 2
Fore
SplineSet
69 0 m 1,0,-1
 69 2048 l 1,1,-1
 1531 2048 l 1,2,-1
 1531 1755 l 1,3,-1
 361 1755 l 1,4,-1
 361 1170 l 1,5,-1
 1239 1170 l 1,6,-1
 1239 877 l 1,7,-1
 361 877 l 1,8,-1
 361 292 l 1,9,-1
 1531 292 l 1,10,-1
 1531 0 l 1,11,-1
 69 0 l 1,0,-1
EndSplineSet
EndChar

StartChar: F
Encoding: 70 70 38
Width: 1600
Flags: W
LayerCount: 2
Fore
SplineSet
69 0 m 1,0,-1
 69 2048 l 1,1,-1
 1531 2048 l 1,2,-1
 1531 1755 l 1,3,-1
 361 1755 l 1,4,-1
 361 1170 l 1,5,-1
 1239 1170 l 1,6,-1
 1239 877 l 1,7,-1
 361 877 l 1,8,-1
 361 0 l 1,9,-1
 69 0 l 1,0,-1
EndSplineSet
EndChar

StartChar: G
Encoding: 71 71 39
Width: 1600
Flags: W
LayerCount: 2
Fore
SplineSet
361 0 m 1,0,-1
 361 292 l 1,1,-1
 1239 292 l 1,2,-1
 1239 0 l 1,3,-1
 361 0 l 1,0,-1
1239 292 m 1,4,-1
 1239 877 l 1,5,-1
 946 877 l 1,6,-1
 946 1170 l 1,7,-1
 1531 1170 l 1,8,-1
 1531 292 l 1,9,-1
 1239 292 l 1,4,-1
69 292 m 1,10,-1
 69 1755 l 1,11,-1
 361 1755 l 1,12,-1
 361 292 l 1,13,-1
 69 292 l 1,10,-1
361 1755 m 1,14,-1
 361 2048 l 1,15,-1
 1239 2048 l 1,16,-1
 1239 1755 l 1,17,-1
 361 1755 l 1,14,-1
EndSplineSet
EndChar

StartChar: H
Encoding: 72 72 40
Width: 1600
Flags: W
LayerCount: 2
Fore
SplineSet
69 0 m 1,0,-1
 69 2048 l 1,1,-1
 361 2048 l 1,2,-1
 361 1170 l 1,3,-1
 1239 1170 l 1,4,-1
 1239 2048 l 1,5,-1
 1531 2048 l 1,6,-1
 1531 0 l 1,7,-1
 1239 0 l 1,8,-1
 1239 877 l 1,9,-1
 361 877 l 1,10,-1
 361 0 l 1,11,-1
 69 0 l 1,0,-1
EndSplineSet
EndChar

StartChar: I
Encoding: 73 73 41
Width: 1600
Flags: W
LayerCount: 2
Fore
SplineSet
361 0 m 1,0,-1
 361 292 l 1,1,-1
 654 292 l 1,2,-1
 654 1755 l 1,3,-1
 361 1755 l 1,4,-1
 361 2048 l 1,5,-1
 1239 2048 l 1,6,-1
 1239 1755 l 1,7,-1
 946 1755 l 1,8,-1
 946 292 l 1,9,-1
 1239 292 l 1,10,-1
 1239 0 l 1,11,-1
 361 0 l 1,0,-1
EndSplineSet
EndChar

StartChar: J
Encoding: 74 74 42
Width: 1600
Flags: W
LayerCount: 2
Fore
SplineSet
361 0 m 1,0,-1
 361 292 l 1,1,-1
 1239 292 l 1,2,-1
 1239 0 l 1,3,-1
 361 0 l 1,0,-1
69 292 m 1,4,-1
 69 585 l 1,5,-1
 361 585 l 1,6,-1
 361 292 l 1,7,-1
 69 292 l 1,4,-1
1239 292 m 1,8,-1
 1239 2048 l 1,9,-1
 1531 2048 l 1,10,-1
 1531 292 l 1,11,-1
 1239 292 l 1,8,-1
EndSplineSet
EndChar

StartChar: K
Encoding: 75 75 43
Width: 1600
Flags: W
LayerCount: 2
Fore
SplineSet
1239 0 m 1,0,-1
 1239 292 l 1,1,-1
 1531 292 l 1,2,-1
 1531 0 l 1,3,-1
 1239 0 l 1,0,-1
946 292 m 1,4,-1
 946 585 l 1,5,-1
 1239 585 l 1,6,-1
 1239 292 l 1,7,-1
 946 292 l 1,4,-1
654 585 m 1,8,-1
 654 877 l 1,9,-1
 946 877 l 1,10,-1
 946 585 l 1,11,-1
 654 585 l 1,8,-1
654 1170 m 1,12,-1
 654 1462 l 1,13,-1
 946 1462 l 1,14,-1
 946 1170 l 1,15,-1
 654 1170 l 1,12,-1
946 1462 m 1,16,-1
 946 1755 l 1,17,-1
 1239 1755 l 1,18,-1
 1239 1462 l 1,19,-1
 946 1462 l 1,16,-1
69 0 m 1,20,-1
 69 2048 l 1,21,-1
 361 2048 l 1,22,-1
 361 1170 l 1,23,-1
 654 1170 l 1,24,-1
 654 877 l 1,25,-1
 361 877 l 1,26,-1
 361 0 l 1,27,-1
 69 0 l 1,20,-1
1239 1755 m 1,28,-1
 1239 2048 l 1,29,-1
 1531 2048 l 1,30,-1
 1531 1755 l 1,31,-1
 1239 1755 l 1,28,-1
EndSplineSet
EndChar

StartChar: L
Encoding: 76 76 44
Width: 1600
Flags: W
LayerCount: 2
Fore
SplineSet
69 0 m 1,0,-1
 69 2048 l 1,1,-1
 361 2048 l 1,2,-1
 361 292 l 1,3,-1
 1531 292 l 1,4,-1
 1531 0 l 1,5,-1
 69 0 l 1,0,-1
EndSplineSet
EndChar

StartChar: M
Encoding: 77 77 45
Width: 1600
Flags: W
LayerCount: 2
Fore
SplineSet
654 877 m 1,0,-1
 654 1462 l 1,1,-1
 946 1462 l 1,2,-1
 946 877 l 1,3,-1
 654 877 l 1,0,-1
69 0 m 1,4,-1
 69 2048 l 1,5,-1
 361 2048 l 1,6,-1
 361 1755 l 1,7,-1
 654 1755 l 1,8,-1
 654 1462 l 1,9,-1
 361 1462 l 1,10,-1
 361 0 l 1,11,-1
 69 0 l 1,4,-1
1239 0 m 1,12,-1
 1239 1462 l 1,13,-1
 946 1462 l 1,14,-1
 946 1755 l 1,15,-1
 1239 1755 l 1,16,-1
 1239 2048 l 1,17,-1
 1531 2048 l 1,18,-1
 1531 0 l 1,19,-1
 1239 0 l 1,12,-1
EndSplineSet
EndChar

StartChar: N
Encoding: 78 78 46
Width: 1600
Flags: W
LayerCount: 2
Fore
SplineSet
654 877 m 1,0,-1
 654 1170 l 1,1,-1
 946 1170 l 1,2,-1
 946 877 l 1,3,-1
 654 877 l 1,0,-1
69 0 m 1,4,-1
 69 2048 l 1,5,-1
 361 2048 l 1,6,-1
 361 1462 l 1,7,-1
 654 1462 l 1,8,-1
 654 1170 l 1,9,-1
 361 1170 l 1,10,-1
 361 0 l 1,11,-1
 69 0 l 1,4,-1
1239 0 m 1,12,-1
 1239 585 l 1,13,-1
 946 585 l 1,14,-1
 946 877 l 1,15,-1
 1239 877 l 1,16,-1
 1239 2048 l 1,17,-1
 1531 2048 l 1,18,-1
 1531 0 l 1,19,-1
 1239 0 l 1,12,-1
EndSplineSet
EndChar

StartChar: O
Encoding: 79 79 47
Width: 1600
Flags: W
LayerCount: 2
Fore
SplineSet
361 0 m 1,0,-1
 361 292 l 1,1,-1
 1239 292 l 1,2,-1
 1239 0 l 1,3,-1
 361 0 l 1,0,-1
69 292 m 1,4,-1
 69 1755 l 1,5,-1
 361 1755 l 1,6,-1
 361 292 l 1,7,-1
 69 292 l 1,4,-1
1239 292 m 1,8,-1
 1239 1755 l 1,9,-1
 1531 1755 l 1,10,-1
 1531 292 l 1,11,-1
 1239 292 l 1,8,-1
361 1755 m 1,12,-1
 361 2048 l 1,13,-1
 1239 2048 l 1,14,-1
 1239 1755 l 1,15,-1
 361 1755 l 1,12,-1
EndSplineSet
EndChar

StartChar: P
Encoding: 80 80 48
Width: 1600
Flags: W
LayerCount: 2
Fore
SplineSet
1239 1170 m 1,0,-1
 1239 1755 l 1,1,-1
 1531 1755 l 1,2,-1
 1531 1170 l 1,3,-1
 1239 1170 l 1,0,-1
69 0 m 1,4,-1
 69 2048 l 1,5,-1
 1239 2048 l 1,6,-1
 1239 1755 l 1,7,-1
 361 1755 l 1,8,-1
 361 1170 l 1,9,-1
 1239 1170 l 1,10,-1
 1239 877 l 1,11,-1
 361 877 l 1,12,-1
 361 0 l 1,13,-1
 69 0 l 1,4,-1
EndSplineSet
EndChar

StartChar: Q
Encoding: 81 81 49
Width: 1600
Flags: W
LayerCount: 2
Fore
SplineSet
361 0 m 1,0,-1
 361 292 l 1,1,-1
 946 292 l 1,2,-1
 946 0 l 1,3,-1
 361 0 l 1,0,-1
1239 0 m 1,4,-1
 1239 292 l 1,5,-1
 1531 292 l 1,6,-1
 1531 0 l 1,7,-1
 1239 0 l 1,4,-1
946 292 m 1,8,-1
 946 585 l 1,9,-1
 1239 585 l 1,10,-1
 1239 292 l 1,11,-1
 946 292 l 1,8,-1
654 585 m 1,12,-1
 654 877 l 1,13,-1
 946 877 l 1,14,-1
 946 585 l 1,15,-1
 654 585 l 1,12,-1
69 292 m 1,16,-1
 69 1755 l 1,17,-1
 361 1755 l 1,18,-1
 361 292 l 1,19,-1
 69 292 l 1,16,-1
1239 585 m 1,20,-1
 1239 1755 l 1,21,-1
 1531 1755 l 1,22,-1
 1531 585 l 1,23,-1
 1239 585 l 1,20,-1
361 1755 m 1,24,-1
 361 2048 l 1,25,-1
 1239 2048 l 1,26,-1
 1239 1755 l 1,27,-1
 361 1755 l 1,24,-1
EndSplineSet
EndChar

StartChar: R
Encoding: 82 82 50
Width: 1600
Flags: W
LayerCount: 2
Fore
SplineSet
1239 0 m 1,0,-1
 1239 292 l 1,1,-1
 1531 292 l 1,2,-1
 1531 0 l 1,3,-1
 1239 0 l 1,0,-1
946 292 m 1,4,-1
 946 585 l 1,5,-1
 1239 585 l 1,6,-1
 1239 292 l 1,7,-1
 946 292 l 1,4,-1
1239 1170 m 1,8,-1
 1239 1755 l 1,9,-1
 1531 1755 l 1,10,-1
 1531 1170 l 1,11,-1
 1239 1170 l 1,8,-1
69 0 m 1,12,-1
 69 2048 l 1,13,-1
 1239 2048 l 1,14,-1
 1239 1755 l 1,15,-1
 361 1755 l 1,16,-1
 361 1170 l 1,17,-1
 1239 1170 l 1,18,-1
 1239 877 l 1,19,-1
 946 877 l 1,20,-1
 946 585 l 1,21,-1
 654 585 l 1,22,-1
 654 877 l 1,23,-1
 361 877 l 1,24,-1
 361 0 l 1,25,-1
 69 0 l 1,12,-1
EndSplineSet
EndChar

StartChar: S
Encoding: 83 83 51
Width: 1600
Flags: W
LayerCount: 2
Fore
SplineSet
361 0 m 1,0,-1
 361 292 l 1,1,-1
 1239 292 l 1,2,-1
 1239 0 l 1,3,-1
 361 0 l 1,0,-1
69 292 m 1,4,-1
 69 585 l 1,5,-1
 361 585 l 1,6,-1
 361 292 l 1,7,-1
 69 292 l 1,4,-1
1239 292 m 1,8,-1
 1239 877 l 1,9,-1
 1531 877 l 1,10,-1
 1531 292 l 1,11,-1
 1239 292 l 1,8,-1
361 877 m 1,12,-1
 361 1170 l 1,13,-1
 1239 1170 l 1,14,-1
 1239 877 l 1,15,-1
 361 877 l 1,12,-1
69 1170 m 1,16,-1
 69 1755 l 1,17,-1
 361 1755 l 1,18,-1
 361 1170 l 1,19,-1
 69 1170 l 1,16,-1
1239 1462 m 1,20,-1
 1239 1755 l 1,21,-1
 1531 1755 l 1,22,-1
 1531 1462 l 1,23,-1
 1239 1462 l 1,20,-1
361 1755 m 1,24,-1
 361 2048 l 1,25,-1
 1239 2048 l 1,26,-1
 1239 1755 l 1,27,-1
 361 1755 l 1,24,-1
EndSplineSet
EndChar

StartChar: T
Encoding: 84 84 52
Width: 1600
Flags: W
LayerCount: 2
Fore
SplineSet
654 0 m 1,0,-1
 654 1755 l 1,1,-1
 69 1755 l 1,2,-1
 69 2048 l 1,3,-1
 1531 2048 l 1,4,-1
 1531 1755 l 1,5,-1
 946 1755 l 1,6,-1
 946 0 l 1,7,-1
 654 0 l 1,0,-1
EndSplineSet
EndChar

StartChar: U
Encoding: 85 85 53
Width: 1600
Flags: W
LayerCount: 2
Fore
SplineSet
361 0 m 1,0,-1
 361 292 l 1,1,-1
 1239 292 l 1,2,-1
 1239 0 l 1,3,-1
 361 0 l 1,0,-1
69 292 m 1,4,-1
 69 2048 l 1,5,-1
 361 2048 l 1,6,-1
 361 292 l 1,7,-1
 69 292 l 1,4,-1
1239 292 m 1,8,-1
 1239 2048 l 1,9,-1
 1531 2048 l 1,10,-1
 1531 292 l 1,11,-1
 1239 292 l 1,8,-1
EndSplineSet
EndChar

StartChar: V
Encoding: 86 86 54
Width: 1600
Flags: W
LayerCount: 2
Fore
SplineSet
654 0 m 1,0,-1
 654 292 l 1,1,-1
 946 292 l 1,2,-1
 946 0 l 1,3,-1
 654 0 l 1,0,-1
361 292 m 1,4,-1
 361 1170 l 1,5,-1
 654 1170 l 1,6,-1
 654 292 l 1,7,-1
 361 292 l 1,4,-1
946 292 m 1,8,-1
 946 1170 l 1,9,-1
 1239 1170 l 1,10,-1
 1239 292 l 1,11,-1
 946 292 l 1,8,-1
69 1170 m 1,12,-1
 69 2048 l 1,13,-1
 361 2048 l 1,14,-1
 361 1170 l 1,15,-1
 69 1170 l 1,12,-1
1239 1170 m 1,16,-1
 1239 2048 l 1,17,-1
 1531 2048 l 1,18,-1
 1531 1170 l 1,19,-1
 1239 1170 l 1,16,-1
EndSplineSet
EndChar

StartChar: W
Encoding: 87 87 55
Width: 1600
Flags: W
LayerCount: 2
Fore
SplineSet
654 585 m 1,0,-1
 654 1170 l 1,1,-1
 946 1170 l 1,2,-1
 946 585 l 1,3,-1
 654 585 l 1,0,-1
69 0 m 1,4,-1
 69 2048 l 1,5,-1
 361 2048 l 1,6,-1
 361 585 l 1,7,-1
 654 585 l 1,8,-1
 654 292 l 1,9,-1
 361 292 l 1,10,-1
 361 0 l 1,11,-1
 69 0 l 1,4,-1
1239 0 m 1,12,-1
 1239 292 l 1,13,-1
 946 292 l 1,14,-1
 946 585 l 1,15,-1
 1239 585 l 1,16,-1
 1239 2048 l 1,17,-1
 1531 2048 l 1,18,-1
 1531 0 l 1,19,-1
 1239 0 l 1,12,-1
EndSplineSet
EndChar

StartChar: X
Encoding: 88 88 56
Width: 1600
Flags: W
LayerCount: 2
Fore
SplineSet
69 0 m 1,0,-1
 69 585 l 1,1,-1
 361 585 l 1,2,-1
 361 0 l 1,3,-1
 69 0 l 1,0,-1
1239 0 m 1,4,-1
 1239 585 l 1,5,-1
 1531 585 l 1,6,-1
 1531 0 l 1,7,-1
 1239 0 l 1,4,-1
361 585 m 1,8,-1
 361 877 l 1,9,-1
 654 877 l 1,10,-1
 654 585 l 1,11,-1
 361 585 l 1,8,-1
946 585 m 1,12,-1
 946 877 l 1,13,-1
 1239 877 l 1,14,-1
 1239 585 l 1,15,-1
 946 585 l 1,12,-1
654 877 m 1,16,-1
 654 1170 l 1,17,-1
 946 1170 l 1,18,-1
 946 877 l 1,19,-1
 654 877 l 1,16,-1
361 1170 m 1,20,-1
 361 1462 l 1,21,-1
 654 1462 l 1,22,-1
 654 1170 l 1,23,-1
 361 1170 l 1,20,-1
946 1170 m 1,24,-1
 946 1462 l 1,25,-1
 1239 1462 l 1,26,-1
 1239 1170 l 1,27,-1
 946 1170 l 1,24,-1
69 1462 m 1,28,-1
 69 2048 l 1,29,-1
 361 2048 l 1,30,-1
 361 1462 l 1,31,-1
 69 1462 l 1,28,-1
1239 1462 m 1,32,-1
 1239 2048 l 1,33,-1
 1531 2048 l 1,34,-1
 1531 1462 l 1,35,-1
 1239 1462 l 1,32,-1
EndSplineSet
EndChar

StartChar: Y
Encoding: 89 89 57
Width: 1600
Flags: W
LayerCount: 2
Fore
SplineSet
654 0 m 1,0,-1
 654 1170 l 1,1,-1
 946 1170 l 1,2,-1
 946 0 l 1,3,-1
 654 0 l 1,0,-1
361 1170 m 1,4,-1
 361 1462 l 1,5,-1
 654 1462 l 1,6,-1
 654 1170 l 1,7,-1
 361 1170 l 1,4,-1
946 1170 m 1,8,-1
 946 1462 l 1,9,-1
 1239 1462 l 1,10,-1
 1239 1170 l 1,11,-1
 946 1170 l 1,8,-1
69 1462 m 1,12,-1
 69 2048 l 1,13,-1
 361 2048 l 1,14,-1
 361 1462 l 1,15,-1
 69 1462 l 1,12,-1
1239 1462 m 1,16,-1
 1239 2048 l 1,17,-1
 1531 2048 l 1,18,-1
 1531 1462 l 1,19,-1
 1239 1462 l 1,16,-1
EndSplineSet
EndChar

StartChar: Z
Encoding: 90 90 58
Width: 1600
Flags: W
LayerCount: 2
Fore
SplineSet
69 0 m 1,0,-1
 69 585 l 1,1,-1
 361 585 l 1,2,-1
 361 292 l 1,3,-1
 1531 292 l 1,4,-1
 1531 0 l 1,5,-1
 69 0 l 1,0,-1
361 585 m 1,6,-1
 361 877 l 1,7,-1
 654 877 l 1,8,-1
 654 585 l 1,9,-1
 361 585 l 1,6,-1
654 877 m 1,10,-1
 654 1170 l 1,11,-1
 946 1170 l 1,12,-1
 946 877 l 1,13,-1
 654 877 l 1,10,-1
946 1170 m 1,14,-1
 946 1462 l 1,15,-1
 1239 1462 l 1,16,-1
 1239 1170 l 1,17,-1
 946 1170 l 1,14,-1
1239 1462 m 1,18,-1
 1239 1755 l 1,19,-1
 69 1755 l 1,20,-1
 69 2048 l 1,21,-1
 1531 2048 l 1,22,-1
 1531 1462 l 1,23,-1
 1239 1462 l 1,18,-1
EndSplineSet
EndChar

StartChar: bracketleft
Encoding: 91 91 59
Width: 1600
Flags: W
LayerCount: 2
Fore
SplineSet
361 0 m 1,0,-1
 361 2048 l 1,1,-1
 1239 2048 l 1,2,-1
 1239 1755 l 1,3,-1
 654 1755 l 1,4,-1
 654 292 l 1,5,-1
 1239 292 l 1,6,-1
 1239 0 l 1,7,-1
 361 0 l 1,0,-1
EndSplineSet
EndChar

StartChar: backslash
Encoding: 92 92 60
Width: 1600
Flags: W
LayerCount: 2
Fore
SplineSet
946 0 m 1,0,-1
 946 585 l 1,1,-1
 1239 585 l 1,2,-1
 1239 0 l 1,3,-1
 946 0 l 1,0,-1
654 585 m 1,4,-1
 654 1462 l 1,5,-1
 946 1462 l 1,6,-1
 946 585 l 1,7,-1
 654 585 l 1,4,-1
361 1462 m 1,8,-1
 361 2048 l 1,9,-1
 654 2048 l 1,10,-1
 654 1462 l 1,11,-1
 361 1462 l 1,8,-1
EndSplineSet
EndChar

StartChar: bracketright
Encoding: 93 93 61
Width: 1600
Flags: W
LayerCount: 2
Fore
SplineSet
361 0 m 1,0,-1
 361 292 l 1,1,-1
 946 292 l 1,2,-1
 946 1755 l 1,3,-1
 361 1755 l 1,4,-1
 361 2048 l 1,5,-1
 1239 2048 l 1,6,-1
 1239 0 l 1,7,-1
 361 0 l 1,0,-1
EndSplineSet
EndChar

StartChar: asciicircum
Encoding: 94 94 62
Width: 1600
Flags: W
LayerCount: 2
Fore
SplineSet
69 1170 m 1,0,-1
 69 1462 l 1,1,-1
 361 1462 l 1,2,-1
 361 1170 l 1,3,-1
 69 1170 l 1,0,-1
1239 1170 m 1,4,-1
 1239 1462 l 1,5,-1
 1531 1462 l 1,6,-1
 1531 1170 l 1,7,-1
 1239 1170 l 1,4,-1
361 1462 m 1,8,-1
 361 1755 l 1,9,-1
 654 1755 l 1,10,-1
 654 1462 l 1,11,-1
 361 1462 l 1,8,-1
946 1462 m 1,12,-1
 946 1755 l 1,13,-1
 1239 1755 l 1,14,-1
 1239 1462 l 1,15,-1
 946 1462 l 1,12,-1
654 1755 m 1,16,-1
 654 2048 l 1,17,-1
 946 2048 l 1,18,-1
 946 1755 l 1,19,-1
 654 1755 l 1,16,-1
EndSplineSet
EndChar

StartChar: underscore
Encoding: 95 95 63
Width: 1600
Flags: W
LayerCount: 2
Fore
SplineSet
361 0 m 1,0,-1
 361 292 l 1,1,-1
 1239 292 l 1,2,-1
 1239 0 l 1,3,-1
 361 0 l 1,0,-1
EndSplineSet
EndChar

StartChar: grave
Encoding: 96 96 64
Width: 1600
Flags: W
LayerCount: 2
Fore
SplineSet
800.5 1170 m 1,0,-1
 800.5 1755 l 1,1,-1
 507.5 1755 l 1,2,-1
 507.5 2048 l 1,3,-1
 1092.5 2048 l 1,4,-1
 1092.5 1170 l 1,5,-1
 800.5 1170 l 1,0,-1
EndSplineSet
EndChar

StartChar: braceleft
Encoding: 123 123 65
Width: 1600
Flags: W
LayerCount: 2
Fore
SplineSet
946.5 0 m 1,0,-1
 946.5 292 l 1,1,-1
 1238.5 292 l 1,2,-1
 1238.5 0 l 1,3,-1
 946.5 0 l 1,0,-1
653.5 292 m 1,4,-1
 653.5 877 l 1,5,-1
 361.5 877 l 1,6,-1
 361.5 1170 l 1,7,-1
 653.5 1170 l 1,8,-1
 653.5 1755 l 1,9,-1
 946.5 1755 l 1,10,-1
 946.5 292 l 1,11,-1
 653.5 292 l 1,4,-1
946.5 1755 m 1,12,-1
 946.5 2048 l 1,13,-1
 1238.5 2048 l 1,14,-1
 1238.5 1755 l 1,15,-1
 946.5 1755 l 1,12,-1
EndSplineSet
EndChar

StartChar: bar
Encoding: 124 124 66
Width: 1600
Flags: W
LayerCount: 2
Fore
SplineSet
654 0 m 1,0,-1
 654 2048 l 1,1,-1
 946 2048 l 1,2,-1
 946 0 l 1,3,-1
 654 0 l 1,0,-1
EndSplineSet
EndChar

StartChar: braceright
Encoding: 125 125 67
Width: 1600
Flags: W
LayerCount: 2
Fore
SplineSet
361.5 0 m 1,0,-1
 361.5 292 l 1,1,-1
 653.5 292 l 1,2,-1
 653.5 0 l 1,3,-1
 361.5 0 l 1,0,-1
653.5 292 m 1,4,-1
 653.5 1755 l 1,5,-1
 946.5 1755 l 1,6,-1
 946.5 1170 l 1,7,-1
 1238.5 1170 l 1,8,-1
 1238.5 877 l 1,9,-1
 946.5 877 l 1,10,-1
 946.5 292 l 1,11,-1
 653.5 292 l 1,4,-1
361.5 1755 m 1,12,-1
 361.5 2048 l 1,13,-1
 653.5 2048 l 1,14,-1
 653.5 1755 l 1,15,-1
 361.5 1755 l 1,12,-1
EndSplineSet
EndChar

StartChar: asciitilde
Encoding: 126 126 68
Width: 1600
Flags: W
LayerCount: 2
Fore
SplineSet
946 585 m 1,0,-1
 946 877 l 1,1,-1
 1239 877 l 1,2,-1
 1239 585 l 1,3,-1
 946 585 l 1,0,-1
69 877 m 1,4,-1
 69 1170 l 1,5,-1
 361 1170 l 1,6,-1
 361 877 l 1,7,-1
 69 877 l 1,4,-1
654 877 m 1,8,-1
 654 1170 l 1,9,-1
 946 1170 l 1,10,-1
 946 877 l 1,11,-1
 654 877 l 1,8,-1
1239 877 m 1,12,-1
 1239 1170 l 1,13,-1
 1531 1170 l 1,14,-1
 1531 877 l 1,15,-1
 1239 877 l 1,12,-1
361 1170 m 1,16,-1
 361 1462 l 1,17,-1
 654 1462 l 1,18,-1
 654 1170 l 1,19,-1
 361 1170 l 1,16,-1
EndSplineSet
EndChar
